<mxfile host="app.diagrams.net" modified="2023-04-25T13:57:59.332Z" agent="Mozilla/5.0 (Windows NT 10.0; Win64; x64) AppleWebKit/537.36 (KHTML, like Gecko) Chrome/111.0.0.0 Safari/537.36" version="21.2.1" etag="zTizJcINwuJlFIhRDc4I" type="github">
  <diagram name="第 1 页" id="DfUU45hUkU0p5RzmBfwm">
    <mxGraphModel>
      <root>
        <mxCell id="0" />
        <mxCell id="1" parent="0" />
      </root>
    </mxGraphModel>
  </diagram>
</mxfile>
